<?xml version="1.0" standalone="no"?>
<!DOCTYPE svg PUBLIC "-//W3C//DTD SVG 20010904//EN"
 "http://www.w3.org/TR/2001/REC-SVG-20010904/DTD/svg10.dtd">
<svg version="1.0" xmlns="http://www.w3.org/2000/svg"
 width="700.000000pt" height="700.000000pt" viewBox="0 0 700.000000 700.000000"
 preserveAspectRatio="xMidYMid meet">
<metadata>
Created by potrace 1.11, written by Peter Selinger 2001-2013
</metadata>
<g transform="translate(0.000000,700.000000) scale(0.100000,-0.100000)"
fill="#000000" stroke="none">
<path d="M3410 6476 c-97 -27 -184 -107 -219 -200 -28 -73 -23 -193 9 -261 32
-66 98 -131 166 -162 l54 -25 -2 -176 -3 -177 -935 -2 c-514 -1 -940 -2 -947
-2 -10 -1 -12 -427 -10 -1978 l2 -1978 1975 0 1975 0 0 1979 0 1980 -942 0
-943 -1 -1 21 c-1 24 -1 302 0 328 1 10 13 19 30 23 34 7 105 56 139 94 12 14
34 51 49 81 37 77 37 190 0 272 -66 147 -241 229 -397 184z m-587 -2080 c75
-24 160 -73 214 -124 131 -124 185 -253 179 -431 -4 -154 -59 -274 -171 -380
-109 -102 -234 -152 -380 -152 -217 0 -404 118 -500 316 -43 90 -48 109 -51
230 -2 87 1 111 25 180 62 182 207 318 391 366 78 20 220 18 293 -5z m1614 10
c110 -23 197 -70 279 -151 147 -146 200 -329 150 -527 -62 -247 -281 -420
-533 -420 -119 0 -208 27 -310 93 -331 216 -329 710 4 925 60 39 139 72 191
80 21 3 38 7 39 7 9 9 125 5 180 -7z m-2057 -1891 c3 -17 5 -93 4 -170 l-1
-140 -169 0 -169 0 -2 170 -2 170 167 0 166 0 6 -30z m515 -140 l0 -170 -167
-1 c-109 0 -168 4 -170 10 -3 10 -2 277 1 316 1 13 26 15 169 15 l167 0 0
-170z m516 140 c0 -16 1 -93 2 -170 l0 -140 -169 0 -169 0 -3 164 c-1 98 1
167 7 170 5 4 82 6 170 6 l161 0 1 -30z m512 26 c4 0 6 -76 5 -168 l-3 -168
-167 -1 c-146 0 -168 2 -169 15 -1 23 -1 282 0 306 1 20 7 20 164 19 89 -1
165 -2 170 -3z m520 0 c4 0 7 -77 7 -169 l0 -169 -167 1 -168 0 -5 91 c-3 49
-4 126 -2 170 l3 81 162 -2 c89 -1 165 -2 170 -3z m512 -3 c6 -4 10 -71 9
-170 l0 -163 -170 0 -169 0 -1 170 -1 170 161 0 c89 0 166 -3 171 -7z"/>
<path d="M2450 3863 l0 -113 215 0 216 0 -3 112 -3 113 -212 0 -213 1 0 -113z"/>
<path d="M4219 4076 c-1 -1 -2 -97 -3 -213 -1 -184 1 -213 14 -214 20 -1 181
-1 200 0 13 1 15 29 14 199 -1 108 -2 205 -3 214 -1 14 -15 16 -111 16 -60 -1
-111 -2 -111 -2z"/>
<path d="M880 3865 l0 -230 -97 0 -97 0 -21 39 c-51 98 -155 177 -257 194
-132 23 -280 -54 -343 -179 -21 -41 -27 -60 -39 -140 -6 -37 11 -117 35 -164
35 -68 120 -143 184 -162 191 -55 367 28 426 200 l13 37 98 0 98 0 0 -257 0
-258 195 0 c107 1 197 4 201 7 5 5 9 925 5 1113 l-1 31 -200 0 -200 0 0 -231z"/>
<path d="M5719 4070 c0 -31 0 -1043 0 -1087 l1 -33 200 0 200 1 0 229 0 229
110 -1 110 -1 20 -43 c29 -59 101 -128 169 -161 48 -24 68 -28 141 -28 102 1
158 24 227 93 69 70 93 127 98 229 10 186 -127 331 -318 338 -162 5 -282 -80
-331 -237 -5 -16 -19 -18 -116 -18 l-110 0 -2 258 -3 257 -197 0 -198 0 -1
-25z"/>
</g>
</svg>
