<?xml version="1.0" encoding="utf-8"?>
<!-- Generator: Adobe Illustrator 16.0.0, SVG Export Plug-In . SVG Version: 6.00 Build 0)  -->
<!DOCTYPE svg PUBLIC "-//W3C//DTD SVG 1.1//EN" "http://www.w3.org/Graphics/SVG/1.1/DTD/svg11.dtd">
<svg version="1.1" id="Layer_1" xmlns="http://www.w3.org/2000/svg" xmlns:xlink="http://www.w3.org/1999/xlink" x="0px" y="0px"
	 width="116.9px" height="116.9px" viewBox="0 0 116.9 116.9" enable-background="new 0 0 116.9 116.9" xml:space="preserve">
<g>
	<path d="M59.9,19.5c2.4-0.6,4.2-2.8,4.2-5.4c0-3.1-2.5-5.6-5.6-5.6c-3.1,0-5.6,2.5-5.6,5.6c0,2.6,1.8,4.8,4.2,5.4v6H25.4v66.1h66.1
		V25.5H59.9V19.5z M39.8,80.1h-5.7v-5.7h5.7V80.1z M48.4,80.1h-5.7v-5.7h5.7V80.1z M44.5,61.7c-5.1,0-9.3-4.2-9.3-9.3
		c0-5.1,4.2-9.3,9.3-9.3c5.1,0,9.3,4.2,9.3,9.3C53.8,57.5,49.6,61.7,44.5,61.7z M57,80.1h-5.7v-5.7H57V80.1z M74.3,80.1h-5.7v-5.7
		h5.7V80.1z M82.9,80.1h-5.7v-5.7h5.7V80.1z M72.3,43.1c5.1,0,9.3,4.2,9.3,9.3c0,5.1-4.2,9.3-9.3,9.3c-5.1,0-9.3-4.2-9.3-9.3
		C63,47.3,67.2,43.1,72.3,43.1z M65.6,74.4v5.7h-5.7v-5.7H65.6z"/>
	<path d="M111.3,52.8c-2.6,0-4.8,1.5-5.4,4.3h-3.7v-8.6h-6.7v19.1h6.7V60h3.7c0.6,1.9,2.8,4,5.4,4c3.1,0,5.6-2.6,5.6-5.7
		C116.9,55.1,114.4,52.8,111.3,52.8z"/>
	<path d="M14.7,56.2h-3.3c-0.6-1.9-2.8-4-5.4-4c-3.1,0-5.6,2.6-5.6,5.7c0,3.1,2.5,5.5,5.6,5.5c2.6,0,4.8-1.5,5.4-4.3h3.3v8.6h6.7
		V48.5h-6.7V56.2z"/>
	<rect x="40.9" y="50.5" width="7.2" height="3.8"/>
	<rect x="70.4" y="48.8" width="3.8" height="7.2"/>
</g>
</svg>
